<?xml version="1.0" standalone="no"?>
<!DOCTYPE svg PUBLIC "-//W3C//DTD SVG 20010904//EN"
 "http://www.w3.org/TR/2001/REC-SVG-20010904/DTD/svg10.dtd">
<svg version="1.0" xmlns="http://www.w3.org/2000/svg"
 width="92.000000pt" height="60.000000pt" viewBox="0 0 92.000000 60.000000"
 preserveAspectRatio="xMidYMid meet">

<g transform="translate(0.000000,60.000000) scale(0.100000,-0.100000)"
fill="#000000" stroke="none">
<path d="M16 584 c-13 -13 -16 -45 -16 -199 0 -191 3 -215 26 -215 11 0 14 16
14 65 0 51 3 65 15 65 12 0 15 14 15 65 0 51 -3 65 -15 65 -29 0 -14 15 54 57
l69 43 76 -43 c77 -42 95 -61 54 -55 -22 3 -23 -1 -26 -64 -2 -56 0 -68 13
-68 12 0 15 -13 15 -64 0 -73 14 -91 42 -56 16 20 18 42 18 201 0 233 12 219
-189 219 -123 0 -152 -3 -165 -16z"/>
<path d="M170 490 c-6 -10 -10 -21 -10 -23 0 -7 100 -20 106 -14 3 3 -15 16
-40 30 -44 25 -46 25 -56 7z"/>
<path d="M110 470 c-28 -22 -24 -25 14 -10 14 5 26 14 26 20 0 15 -12 12 -40
-10z"/>
<path d="M90 369 c0 -67 1 -70 23 -67 17 2 23 11 25 38 3 28 1 33 -9 23 -7 -7
-17 -13 -23 -13 -5 0 -2 6 7 13 9 6 20 27 23 45 6 30 5 32 -20 32 -26 0 -26
-1 -26 -71z m40 42 c0 -4 -7 -8 -15 -8 -16 0 -20 9 -9 20 8 8 24 -1 24 -12z"/>
<path d="M150 376 c0 -71 4 -76 71 -76 l39 0 0 70 0 70 -55 0 -55 0 0 -64z
m90 34 c6 -12 8 -30 5 -41 -10 -29 -59 -22 -63 9 -7 46 38 70 58 32z"/>
<path d="M200 385 c0 -16 6 -25 15 -25 9 0 15 9 15 25 0 16 -6 25 -15 25 -9 0
-15 -9 -15 -25z"/>
<path d="M820 253 l0 -88 34 -2 c45 -4 66 18 66 66 0 45 -19 65 -55 59 -22 -5
-25 -2 -25 23 0 16 -4 29 -10 29 -6 0 -10 -36 -10 -87z m74 1 c17 -43 -12 -96
-40 -73 -14 12 -19 70 -7 82 12 13 41 7 47 -9z"/>
<path d="M57 283 c-4 -3 -7 -33 -7 -65 l0 -58 45 0 45 0 0 65 0 65 -38 0 c-21
0 -42 -3 -45 -7z"/>
<path d="M152 228 l3 -63 73 -3 73 -3 -3 63 -3 63 -73 3 -73 3 3 -63z"/>
<path d="M430 237 c0 -63 10 -76 63 -74 l37 1 0 63 c0 76 -18 85 -22 11 -3
-46 -6 -53 -25 -56 -20 -3 -22 2 -25 49 -4 74 -28 79 -28 6z"/>
<path d="M562 227 c4 -79 26 -90 30 -15 3 46 6 53 26 56 21 3 22 0 22 -53 0
-68 23 -73 28 -7 5 63 -10 81 -64 80 l-45 -1 3 -60z"/>
<path d="M706 281 c-4 -6 5 -9 20 -8 40 3 39 -17 -1 -36 -30 -14 -36 -22 -33
-45 3 -25 6 -27 56 -28 28 -1 52 3 52 7 0 5 -4 9 -9 9 -6 0 -11 24 -13 53 -3
50 -4 52 -35 55 -17 2 -34 -1 -37 -7z m54 -66 c0 -29 -25 -44 -43 -26 -9 10
-7 17 12 32 30 24 31 24 31 -6z"/>
<path d="M57 60 c3 -11 9 -22 13 -25 5 -3 6 4 3 15 -3 11 -9 22 -13 25 -5 3
-6 -4 -3 -15z"/>
<path d="M228 62 c-4 -12 -2 -20 3 -16 5 3 9 0 9 -7 0 -7 2 -10 5 -7 3 3 2 16
-3 28 l-9 24 -5 -22z"/>
<path d="M262 55 c0 -16 2 -22 5 -12 2 9 2 23 0 30 -3 6 -5 -1 -5 -18z"/>
<path d="M370 74 c0 -6 7 -19 16 -30 14 -18 14 -18 3 6 -14 31 -19 36 -19 24z"/>
<path d="M432 55 c0 -16 2 -22 5 -12 2 9 2 23 0 30 -3 6 -5 -1 -5 -18z"/>
<path d="M450 74 c0 -6 9 -19 20 -29 20 -18 20 -17 19 11 -1 18 -3 22 -6 11
-5 -18 -5 -18 -19 0 -7 10 -14 13 -14 7z"/>
<path d="M502 55 c0 -16 2 -22 5 -12 2 9 2 23 0 30 -3 6 -5 -1 -5 -18z"/>
<path d="M532 55 c0 -16 2 -22 5 -12 2 9 2 23 0 30 -3 6 -5 -1 -5 -18z"/>
<path d="M582 60 c0 -14 2 -19 5 -12 2 6 2 18 0 25 -3 6 -5 1 -5 -13z"/>
<path d="M612 60 c0 -14 2 -19 5 -12 2 6 2 18 0 25 -3 6 -5 1 -5 -13z"/>
<path d="M680 75 c0 -5 5 -17 10 -25 5 -8 10 -10 10 -5 0 6 -5 17 -10 25 -5 8
-10 11 -10 5z"/>
<path d="M752 55 c0 -16 2 -22 5 -12 2 9 2 23 0 30 -3 6 -5 -1 -5 -18z"/>
<path d="M830 73 c0 -5 9 -18 20 -28 11 -10 20 -15 20 -11 0 4 -9 16 -20 28
-11 12 -20 17 -20 11z"/>
<path d="M116 62 c-2 -4 -1 -14 4 -22 7 -11 9 -9 7 8 -1 24 -3 26 -11 14z"/>
<path d="M181 54 c0 -11 3 -14 6 -6 3 7 2 16 -1 19 -3 4 -6 -2 -5 -13z"/>
<path d="M287 51 c-4 -17 -3 -21 5 -13 5 5 8 16 6 23 -3 8 -7 3 -11 -10z"/>
<path d="M320 58 c0 -9 5 -20 10 -23 13 -8 13 5 0 25 -8 13 -10 13 -10 -2z"/>
<path d="M400 61 c0 -5 5 -13 10 -16 6 -3 10 -2 10 4 0 5 -4 13 -10 16 -5 3
-10 2 -10 -4z"/>
<path d="M561 54 c0 -11 3 -14 6 -6 3 7 2 16 -1 19 -3 4 -6 -2 -5 -13z"/>
<path d="M632 50 c0 -14 2 -19 5 -12 2 6 2 18 0 25 -3 6 -5 1 -5 -13z"/>
<path d="M710 56 c0 -8 4 -17 9 -20 5 -4 7 3 4 14 -6 23 -13 26 -13 6z"/>
<path d="M811 54 c0 -11 3 -14 6 -6 3 7 2 16 -1 19 -3 4 -6 -2 -5 -13z"/>
</g>
</svg>
